<mxfile>
    <diagram id="CSMrGg8zIG7H2dvXdOac" name="Activity">
        <mxGraphModel dx="3948" dy="2024" grid="0" gridSize="10" guides="1" tooltips="1" connect="1" arrows="0" fold="1" page="0" pageScale="1" pageWidth="1169" pageHeight="827" background="none" math="0" shadow="0">
            <root>
                <mxCell id="0"/>
                <mxCell id="1" parent="0" visible="0"/>
                <mxCell id="19" value="Algorithm" parent="0"/>
                <mxCell id="20" value="" style="ellipse;html=1;shape=startState;fillColor=#000000;strokeColor=#ff0000;rounded=1;" parent="19" vertex="1">
                    <mxGeometry x="-341" y="-204" width="30" height="30" as="geometry"/>
                </mxCell>
                <mxCell id="21" value="" style="edgeStyle=orthogonalEdgeStyle;html=1;verticalAlign=bottom;endArrow=open;endSize=8;strokeColor=#ff0000;entryX=0.5;entryY=0;entryDx=0;entryDy=0;" parent="19" source="20" target="23" edge="1">
                    <mxGeometry relative="1" as="geometry">
                        <mxPoint x="-332" y="-130" as="targetPoint"/>
                    </mxGeometry>
                </mxCell>
                <mxCell id="22" style="edgeStyle=orthogonalEdgeStyle;orthogonalLoop=1;jettySize=auto;html=1;exitX=0.5;exitY=1;exitDx=0;exitDy=0;entryX=0.5;entryY=0;entryDx=0;entryDy=0;fillColor=#e51400;endArrow=open;endFill=0;strokeColor=#FF0000;" parent="19" source="23" target="24" edge="1">
                    <mxGeometry relative="1" as="geometry"/>
                </mxCell>
                <mxCell id="23" value="sources: string[],&lt;br&gt;importsFilePath: string" style="html=1;strokeColor=#FF0000;fillColor=#FFFFC0;fontColor=#000000;rounded=0;glass=0;sketch=0;shadow=0;" parent="19" vertex="1">
                    <mxGeometry x="-393.5" y="-135" width="135" height="50" as="geometry"/>
                </mxCell>
                <mxCell id="24" value="&amp;lt;&amp;lt;constructor&amp;gt;&amp;gt;&lt;br&gt;importsFilePath =&amp;gt; importsFileName&lt;br&gt;sources =&amp;gt; partitionedImportNames : Map&amp;lt;string,Set&amp;lt;string&amp;gt;&amp;gt;&lt;br&gt;partitionedImportNames.keys = sources" style="whiteSpace=wrap;html=1;arcSize=40;fontColor=#000000;fillColor=#ffffc0;strokeColor=#ff0000;rounded=1;" parent="19" vertex="1">
                    <mxGeometry x="-503" y="-40" width="354" height="76" as="geometry"/>
                </mxCell>
                <mxCell id="25" value="" style="edgeStyle=orthogonalEdgeStyle;html=1;verticalAlign=bottom;endArrow=open;endSize=8;strokeColor=#ff0000;entryX=1;entryY=0.5;entryDx=0;entryDy=0;" parent="19" source="24" target="26" edge="1">
                    <mxGeometry relative="1" as="geometry">
                        <mxPoint x="-579" y="-3" as="targetPoint"/>
                    </mxGeometry>
                </mxCell>
                <mxCell id="26" value="&amp;lt;&amp;lt;global&amp;gt;&amp;gt;&lt;br&gt;sources: string[],&lt;br&gt;&lt;span&gt;importsFileName: string,&lt;br&gt;&lt;/span&gt;&lt;span&gt;partitionedImportNames : Map&amp;lt;string,Set&amp;lt;string&amp;gt;&amp;gt;&lt;/span&gt;&lt;br&gt;&lt;i&gt;partitionedImportNames.keys==sources&lt;/i&gt;&lt;span&gt;&lt;br&gt;&lt;/span&gt;" style="html=1;strokeColor=#FF0000;fillColor=#FFFFC0;fontColor=#000000;rounded=0;" parent="19" vertex="1">
                    <mxGeometry x="-827" y="-46" width="292" height="89" as="geometry"/>
                </mxCell>
                <mxCell id="33" value="importsFilePath: string" style="html=1;strokeColor=#FF0000;fillColor=#FFFFC0;fontColor=#000000;rounded=0;glass=0;sketch=0;shadow=0;" parent="19" vertex="1">
                    <mxGeometry x="-395" y="65" width="135" height="30" as="geometry"/>
                </mxCell>
                <mxCell id="35" value="imports: string[]" style="html=1;strokeColor=#FF0000;fillColor=#FFFFC0;fontColor=#000000;rounded=0;glass=0;sketch=0;shadow=0;" parent="19" vertex="1">
                    <mxGeometry x="-394" y="365" width="135" height="30" as="geometry"/>
                </mxCell>
                <mxCell id="28" value="getStartImports(importsFilePath) =&amp;gt; startImports:string[]" style="rounded=1;whiteSpace=wrap;html=1;arcSize=40;fontColor=#000000;fillColor=#ffffc0;strokeColor=#ff0000;shadow=0;glass=0;sketch=0;" parent="19" vertex="1">
                    <mxGeometry x="-434" y="253" width="213" height="50" as="geometry"/>
                </mxCell>
                <mxCell id="30" value="findFilesFromAllSources(imports)" style="rounded=1;whiteSpace=wrap;html=1;arcSize=40;fontColor=#000000;fillColor=#ffffc0;strokeColor=#ff0000;shadow=0;glass=0;sketch=0;" parent="19" vertex="1">
                    <mxGeometry x="-434" y="493" width="205" height="35" as="geometry"/>
                </mxCell>
                <mxCell id="31" value="" style="edgeStyle=orthogonalEdgeStyle;html=1;verticalAlign=bottom;endArrow=open;endSize=8;strokeColor=#ff0000;fontColor=#000000;" parent="19" source="30" edge="1">
                    <mxGeometry relative="1" as="geometry">
                        <mxPoint x="-749" y="479" as="targetPoint"/>
                    </mxGeometry>
                </mxCell>
                <mxCell id="36" style="edgeStyle=orthogonalEdgeStyle;rounded=1;orthogonalLoop=1;jettySize=auto;html=1;exitX=0.5;exitY=1;exitDx=0;exitDy=0;entryX=0.5;entryY=0;entryDx=0;entryDy=0;endArrow=open;endFill=0;strokeColor=#FF0000;fontColor=#000000;" parent="19" source="35" target="30" edge="1">
                    <mxGeometry relative="1" as="geometry"/>
                </mxCell>
                <mxCell id="29" value="" style="edgeStyle=orthogonalEdgeStyle;html=1;verticalAlign=bottom;endArrow=open;endSize=8;strokeColor=#ff0000;fontColor=#000000;entryX=0.5;entryY=0;entryDx=0;entryDy=0;" parent="19" source="28" target="35" edge="1">
                    <mxGeometry relative="1" as="geometry">
                        <mxPoint x="-369" y="451" as="targetPoint"/>
                    </mxGeometry>
                </mxCell>
                <mxCell id="34" style="edgeStyle=orthogonalEdgeStyle;rounded=1;orthogonalLoop=1;jettySize=auto;html=1;exitX=0.5;exitY=1;exitDx=0;exitDy=0;endArrow=open;endFill=0;strokeColor=#FF0000;fontColor=#000000;" parent="19" source="33" target="28" edge="1">
                    <mxGeometry relative="1" as="geometry"/>
                </mxCell>
                <mxCell id="32" style="edgeStyle=orthogonalEdgeStyle;rounded=1;orthogonalLoop=1;jettySize=auto;html=1;exitX=0.5;exitY=1;exitDx=0;exitDy=0;entryX=0.5;entryY=0;entryDx=0;entryDy=0;endArrow=open;endFill=0;strokeColor=#FF0000;fontColor=#000000;" parent="19" source="24" target="33" edge="1">
                    <mxGeometry relative="1" as="geometry"/>
                </mxCell>
                <mxCell id="41" value="findFilesFromAllSources" parent="0"/>
                <mxCell id="149" value="findFilesInSource" style="shape=umlFrame;whiteSpace=wrap;html=1;width=114;height=26;" vertex="1" parent="41">
                    <mxGeometry x="61" y="-164" width="365" height="694" as="geometry"/>
                </mxCell>
                <mxCell id="52" style="edgeStyle=orthogonalEdgeStyle;rounded=1;orthogonalLoop=1;jettySize=auto;html=1;exitX=1;exitY=0.5;exitDx=0;exitDy=0;entryX=-0.105;entryY=0.49;entryDx=0;entryDy=0;entryPerimeter=0;endArrow=open;endFill=0;strokeColor=#FF0000;fontColor=#000000;" parent="41" source="37" target="51" edge="1">
                    <mxGeometry relative="1" as="geometry"/>
                </mxCell>
                <mxCell id="53" value="no" style="edgeLabel;html=1;align=center;verticalAlign=middle;resizable=0;points=[];fontColor=#000000;" parent="52" vertex="1" connectable="0">
                    <mxGeometry x="-0.6494" y="-1" relative="1" as="geometry">
                        <mxPoint x="7.57" y="-10.5" as="offset"/>
                    </mxGeometry>
                </mxCell>
                <mxCell id="37" value="additionImports.length &amp;gt;= 1" style="rhombus;whiteSpace=wrap;html=1;fillColor=#ffffc0;strokeColor=#ff0000;rounded=0;shadow=0;glass=0;sketch=0;fontColor=#000000;" parent="41" vertex="1">
                    <mxGeometry x="162" y="43" width="173" height="89" as="geometry"/>
                </mxCell>
                <mxCell id="39" value="yes" style="edgeStyle=orthogonalEdgeStyle;html=1;align=left;verticalAlign=top;endArrow=open;endSize=8;strokeColor=#ff0000;fontColor=#000000;entryX=0.5;entryY=0;entryDx=0;entryDy=0;" parent="41" source="37" target="57" edge="1">
                    <mxGeometry x="-1" relative="1" as="geometry">
                        <mxPoint x="248" y="182" as="targetPoint"/>
                    </mxGeometry>
                </mxCell>
                <mxCell id="46" value="" style="edgeStyle=orthogonalEdgeStyle;html=1;verticalAlign=bottom;endArrow=open;endSize=8;strokeColor=#ff0000;fontColor=#000000;entryX=0.5;entryY=0;entryDx=0;entryDy=0;rounded=1;exitX=0.5;exitY=1;exitDx=0;exitDy=0;" parent="41" source="146" target="47" edge="1">
                    <mxGeometry relative="1" as="geometry">
                        <mxPoint x="313" y="33" as="targetPoint"/>
                    </mxGeometry>
                </mxCell>
                <mxCell id="48" style="edgeStyle=orthogonalEdgeStyle;rounded=1;orthogonalLoop=1;jettySize=auto;html=1;exitX=0.5;exitY=1;exitDx=0;exitDy=0;entryX=0.5;entryY=0;entryDx=0;entryDy=0;endArrow=open;endFill=0;strokeColor=#FF0000;fontColor=#000000;" parent="41" source="47" target="37" edge="1">
                    <mxGeometry relative="1" as="geometry"/>
                </mxCell>
                <mxCell id="47" value="additionalImports: string[]" style="html=1;rounded=0;shadow=0;glass=0;sketch=0;strokeColor=#FF0000;fillColor=#FFFFC0;fontColor=#000000;" parent="41" vertex="1">
                    <mxGeometry x="176" y="-7" width="145" height="29" as="geometry"/>
                </mxCell>
                <mxCell id="51" value="" style="ellipse;html=1;shape=endState;fillColor=#000000;strokeColor=#ff0000;rounded=0;shadow=0;glass=0;sketch=0;fontColor=#000000;" parent="41" vertex="1">
                    <mxGeometry x="379" y="72.5" width="30" height="30" as="geometry"/>
                </mxCell>
                <mxCell id="57" value="checkImportsInSource(source, additionalImports)" style="rounded=1;whiteSpace=wrap;html=1;arcSize=40;fontColor=#000000;fillColor=#ffffc0;strokeColor=#ff0000;shadow=0;glass=0;sketch=0;" parent="41" vertex="1">
                    <mxGeometry x="112" y="181" width="273.5" height="26" as="geometry"/>
                </mxCell>
                <mxCell id="116" value="additionalImports: string[]" style="html=1;rounded=0;shadow=0;glass=0;sketch=0;strokeColor=#FF0000;fillColor=#FFFFC0;fontColor=#000000;" vertex="1" parent="41">
                    <mxGeometry x="174.87" y="456" width="145" height="29" as="geometry"/>
                </mxCell>
                <mxCell id="117" style="edgeStyle=orthogonalEdgeStyle;rounded=1;orthogonalLoop=1;jettySize=auto;html=1;exitX=0.5;exitY=1;exitDx=0;exitDy=0;entryX=0.5;entryY=0;entryDx=0;entryDy=0;endArrow=open;endFill=0;strokeColor=#FF0000;" edge="1" parent="41" source="111" target="119">
                    <mxGeometry relative="1" as="geometry"/>
                </mxCell>
                <mxCell id="111" value="exists: string[],&lt;br&gt;notExists: string[]" style="html=1;rounded=0;shadow=0;glass=0;sketch=0;strokeColor=#FF0000;fillColor=#FFFFC0;fontColor=#000000;" vertex="1" parent="41">
                    <mxGeometry x="192" y="246" width="110.75" height="40" as="geometry"/>
                </mxCell>
                <mxCell id="114" value="findAdditionalImportsFrom(source, result.exists)" style="rounded=1;whiteSpace=wrap;html=1;arcSize=40;fontColor=#000000;fillColor=#ffffc0;strokeColor=#ff0000;" vertex="1" parent="41">
                    <mxGeometry x="108.5" y="389" width="280" height="30" as="geometry"/>
                </mxCell>
                <mxCell id="119" value="add result to self object" style="rounded=1;whiteSpace=wrap;html=1;arcSize=40;fontColor=#000000;fillColor=#ffffc0;strokeColor=#ff0000;" vertex="1" parent="41">
                    <mxGeometry x="187.37" y="321" width="120" height="40" as="geometry"/>
                </mxCell>
                <mxCell id="120" value="" style="edgeStyle=orthogonalEdgeStyle;html=1;verticalAlign=bottom;endArrow=open;endSize=8;strokeColor=#ff0000;entryX=0.5;entryY=0;entryDx=0;entryDy=0;" edge="1" source="119" parent="41" target="114">
                    <mxGeometry relative="1" as="geometry">
                        <mxPoint x="192" y="326" as="targetPoint"/>
                    </mxGeometry>
                </mxCell>
                <mxCell id="113" style="edgeStyle=orthogonalEdgeStyle;rounded=1;orthogonalLoop=1;jettySize=auto;html=1;exitX=0.5;exitY=1;exitDx=0;exitDy=0;entryX=0.5;entryY=0;entryDx=0;entryDy=0;endArrow=open;endFill=0;strokeColor=#FF0000;" edge="1" parent="41" source="57" target="111">
                    <mxGeometry relative="1" as="geometry"/>
                </mxCell>
                <mxCell id="115" value="" style="edgeStyle=orthogonalEdgeStyle;html=1;verticalAlign=bottom;endArrow=open;endSize=8;strokeColor=#ff0000;entryX=0.5;entryY=0;entryDx=0;entryDy=0;" edge="1" source="114" parent="41" target="116">
                    <mxGeometry relative="1" as="geometry">
                        <mxPoint x="371.99" y="496" as="targetPoint"/>
                    </mxGeometry>
                </mxCell>
                <mxCell id="118" style="edgeStyle=orthogonalEdgeStyle;rounded=1;orthogonalLoop=1;jettySize=auto;html=1;exitX=0.5;exitY=1;exitDx=0;exitDy=0;entryX=0.5;entryY=0;entryDx=0;entryDy=0;endArrow=open;endFill=0;strokeColor=#FF0000;" edge="1" parent="41" source="116" target="47">
                    <mxGeometry relative="1" as="geometry">
                        <Array as="points">
                            <mxPoint x="247" y="509"/>
                            <mxPoint x="82" y="509"/>
                            <mxPoint x="82" y="-34"/>
                            <mxPoint x="249" y="-34"/>
                        </Array>
                    </mxGeometry>
                </mxCell>
                <mxCell id="145" value="" style="endArrow=block;dashed=1;endFill=0;endSize=12;html=1;strokeColor=#FF0000;exitX=1;exitY=0.5;exitDx=0;exitDy=0;entryX=0.005;entryY=0.006;entryDx=0;entryDy=0;entryPerimeter=0;" edge="1" parent="41" source="114" target="144">
                    <mxGeometry width="160" relative="1" as="geometry">
                        <mxPoint x="230" y="1031" as="sourcePoint"/>
                        <mxPoint x="390" y="1031" as="targetPoint"/>
                    </mxGeometry>
                </mxCell>
                <mxCell id="146" value="source: string" style="html=1;rounded=0;shadow=0;glass=0;sketch=0;strokeColor=#FF0000;fillColor=#FFFFC0;fontColor=#000000;" vertex="1" parent="41">
                    <mxGeometry x="176.25" y="-89" width="145" height="29" as="geometry"/>
                </mxCell>
                <mxCell id="147" value="" style="ellipse;html=1;shape=startState;fillColor=#000000;strokeColor=#ff0000;" vertex="1" parent="41">
                    <mxGeometry x="233.75" y="-155" width="30" height="30" as="geometry"/>
                </mxCell>
                <mxCell id="148" value="" style="edgeStyle=orthogonalEdgeStyle;html=1;verticalAlign=bottom;endArrow=open;endSize=8;strokeColor=#ff0000;entryX=0.5;entryY=0;entryDx=0;entryDy=0;" edge="1" source="147" parent="41" target="146">
                    <mxGeometry relative="1" as="geometry">
                        <mxPoint x="226" y="-136" as="targetPoint"/>
                    </mxGeometry>
                </mxCell>
                <mxCell id="98" value="checkImportsInSource" parent="0" visible="0"/>
                <mxCell id="109" value="checkImportsInSource(source, imports)" style="shape=umlFrame;whiteSpace=wrap;html=1;width=260;height=30;" vertex="1" parent="98">
                    <mxGeometry x="1001" y="177" width="850" height="800" as="geometry"/>
                </mxCell>
                <mxCell id="95" value="path.join(source, import of imports)" style="rounded=1;whiteSpace=wrap;html=1;arcSize=40;fontColor=#000000;fillColor=#ffffc0;strokeColor=#ff0000;" vertex="1" parent="98">
                    <mxGeometry x="1308" y="346" width="208.5" height="30" as="geometry"/>
                </mxCell>
                <mxCell id="96" value="" style="edgeStyle=orthogonalEdgeStyle;html=1;verticalAlign=bottom;endArrow=open;endSize=8;strokeColor=#ff0000;entryX=0.484;entryY=0;entryDx=0;entryDy=0;entryPerimeter=0;" edge="1" source="95" parent="98" target="86">
                    <mxGeometry relative="1" as="geometry">
                        <mxPoint x="1923.75" y="386" as="targetPoint"/>
                    </mxGeometry>
                </mxCell>
                <mxCell id="60" value="" style="edgeStyle=orthogonalEdgeStyle;html=1;verticalAlign=bottom;endArrow=open;endSize=8;strokeColor=#ff0000;fontColor=#000000;entryX=0.5;entryY=0;entryDx=0;entryDy=0;exitX=0.75;exitY=0.5;exitDx=0;exitDy=0;exitPerimeter=0;" parent="98" source="86" target="61" edge="1">
                    <mxGeometry relative="1" as="geometry">
                        <mxPoint x="1508.75" y="562" as="targetPoint"/>
                        <mxPoint x="1509.2642857142857" y="467" as="sourcePoint"/>
                    </mxGeometry>
                </mxCell>
                <mxCell id="61" value="checkImportPath(path)" style="rounded=1;whiteSpace=wrap;html=1;arcSize=40;fontColor=#000000;fillColor=#ffffc0;strokeColor=#ff0000;shadow=0;glass=0;sketch=0;" parent="98" vertex="1">
                    <mxGeometry x="1464.75" y="476" width="148" height="29" as="geometry"/>
                </mxCell>
                <mxCell id="62" value="" style="edgeStyle=orthogonalEdgeStyle;html=1;verticalAlign=bottom;endArrow=open;endSize=8;strokeColor=#ff0000;fontColor=#000000;entryX=0.5;entryY=0;entryDx=0;entryDy=0;exitX=0.5;exitY=1;exitDx=0;exitDy=0;" parent="98" source="61" target="63" edge="1">
                    <mxGeometry relative="1" as="geometry">
                        <mxPoint x="1744" y="645.51" as="targetPoint"/>
                        <mxPoint x="1684" y="559.9957142857143" as="sourcePoint"/>
                    </mxGeometry>
                </mxCell>
                <mxCell id="63" value="importPath existrs?" style="rhombus;whiteSpace=wrap;html=1;fillColor=#ffffc0;strokeColor=#ff0000;rounded=0;shadow=0;glass=0;sketch=0;fontColor=#000000;" parent="98" vertex="1">
                    <mxGeometry x="1494" y="539" width="88" height="76" as="geometry"/>
                </mxCell>
                <mxCell id="64" value="no" style="edgeStyle=orthogonalEdgeStyle;html=1;align=left;verticalAlign=bottom;endArrow=open;endSize=8;strokeColor=#ff0000;fontColor=#000000;entryX=0.5;entryY=0;entryDx=0;entryDy=0;" parent="98" source="63" target="70" edge="1">
                    <mxGeometry x="-1" relative="1" as="geometry">
                        <mxPoint x="1732" y="639" as="targetPoint"/>
                    </mxGeometry>
                </mxCell>
                <mxCell id="65" value="yes" style="edgeStyle=orthogonalEdgeStyle;html=1;align=left;verticalAlign=top;endArrow=open;endSize=8;strokeColor=#ff0000;fontColor=#000000;entryX=0.5;entryY=0;entryDx=0;entryDy=0;" parent="98" source="63" target="68" edge="1">
                    <mxGeometry x="-1" relative="1" as="geometry">
                        <mxPoint x="1543" y="686" as="targetPoint"/>
                    </mxGeometry>
                </mxCell>
                <mxCell id="71" style="edgeStyle=orthogonalEdgeStyle;rounded=1;orthogonalLoop=1;jettySize=auto;html=1;exitX=0.5;exitY=1;exitDx=0;exitDy=0;endArrow=open;endFill=0;strokeColor=#FF0000;fontColor=#000000;entryX=0.75;entryY=0.5;entryDx=0;entryDy=0;entryPerimeter=0;" parent="98" source="68" target="88" edge="1">
                    <mxGeometry relative="1" as="geometry">
                        <mxPoint x="1509.75" y="867" as="targetPoint"/>
                    </mxGeometry>
                </mxCell>
                <mxCell id="68" value="Promise.resolve(importName)" style="html=1;rounded=0;shadow=0;glass=0;sketch=0;strokeColor=#FF0000;fillColor=#FFFFC0;fontColor=#000000;" parent="98" vertex="1">
                    <mxGeometry x="1453.75" y="662" width="168.5" height="24" as="geometry"/>
                </mxCell>
                <mxCell id="72" style="edgeStyle=orthogonalEdgeStyle;rounded=1;orthogonalLoop=1;jettySize=auto;html=1;exitX=0.5;exitY=1;exitDx=0;exitDy=0;endArrow=open;endFill=0;strokeColor=#FF0000;fontColor=#000000;entryX=0.75;entryY=0.5;entryDx=0;entryDy=0;entryPerimeter=0;" parent="98" source="70" target="88" edge="1">
                    <mxGeometry relative="1" as="geometry">
                        <mxPoint x="1509.75" y="867" as="targetPoint"/>
                    </mxGeometry>
                </mxCell>
                <mxCell id="70" value="Promise.reject(importName)" style="html=1;rounded=0;shadow=0;glass=0;sketch=0;strokeColor=#FF0000;fillColor=#FFFFC0;fontColor=#000000;" parent="98" vertex="1">
                    <mxGeometry x="1637.5" y="662" width="168.5" height="24" as="geometry"/>
                </mxCell>
                <mxCell id="76" value="" style="edgeStyle=orthogonalEdgeStyle;html=1;verticalAlign=bottom;endArrow=open;endSize=8;strokeColor=#ff0000;fontColor=#000000;entryX=0.5;entryY=0;entryDx=0;entryDy=0;exitX=0.25;exitY=0.5;exitDx=0;exitDy=0;exitPerimeter=0;" parent="98" source="86" target="77" edge="1">
                    <mxGeometry relative="1" as="geometry">
                        <mxPoint x="1148.75" y="560" as="targetPoint"/>
                        <mxPoint x="1149.264285714286" y="465" as="sourcePoint"/>
                    </mxGeometry>
                </mxCell>
                <mxCell id="77" value="checkImportPath(path)" style="rounded=1;whiteSpace=wrap;html=1;arcSize=40;fontColor=#000000;fillColor=#ffffc0;strokeColor=#ff0000;shadow=0;glass=0;sketch=0;" parent="98" vertex="1">
                    <mxGeometry x="1074.75" y="476" width="148" height="29" as="geometry"/>
                </mxCell>
                <mxCell id="78" value="" style="edgeStyle=orthogonalEdgeStyle;html=1;verticalAlign=bottom;endArrow=open;endSize=8;strokeColor=#ff0000;fontColor=#000000;entryX=0.5;entryY=0;entryDx=0;entryDy=0;exitX=0.5;exitY=1;exitDx=0;exitDy=0;" parent="98" source="77" target="79" edge="1">
                    <mxGeometry relative="1" as="geometry">
                        <mxPoint x="1354" y="645.51" as="targetPoint"/>
                        <mxPoint x="1294" y="559.9957142857143" as="sourcePoint"/>
                    </mxGeometry>
                </mxCell>
                <mxCell id="79" value="importPath existrs?" style="rhombus;whiteSpace=wrap;html=1;fillColor=#ffffc0;strokeColor=#ff0000;rounded=0;shadow=0;glass=0;sketch=0;fontColor=#000000;" parent="98" vertex="1">
                    <mxGeometry x="1104" y="539" width="88" height="76" as="geometry"/>
                </mxCell>
                <mxCell id="80" value="no" style="edgeStyle=orthogonalEdgeStyle;html=1;align=left;verticalAlign=bottom;endArrow=open;endSize=8;strokeColor=#ff0000;fontColor=#000000;entryX=0.5;entryY=0;entryDx=0;entryDy=0;" parent="98" source="79" target="85" edge="1">
                    <mxGeometry x="-1" relative="1" as="geometry">
                        <mxPoint x="1342" y="639" as="targetPoint"/>
                    </mxGeometry>
                </mxCell>
                <mxCell id="81" value="yes" style="edgeStyle=orthogonalEdgeStyle;html=1;align=left;verticalAlign=top;endArrow=open;endSize=8;strokeColor=#ff0000;fontColor=#000000;entryX=0.5;entryY=0;entryDx=0;entryDy=0;" parent="98" source="79" target="83" edge="1">
                    <mxGeometry x="-1" relative="1" as="geometry">
                        <mxPoint x="1153" y="686" as="targetPoint"/>
                    </mxGeometry>
                </mxCell>
                <mxCell id="82" style="edgeStyle=orthogonalEdgeStyle;rounded=1;orthogonalLoop=1;jettySize=auto;html=1;exitX=0.5;exitY=1;exitDx=0;exitDy=0;endArrow=open;endFill=0;strokeColor=#FF0000;fontColor=#000000;entryX=0.25;entryY=0.5;entryDx=0;entryDy=0;entryPerimeter=0;" parent="98" source="83" target="88" edge="1">
                    <mxGeometry relative="1" as="geometry">
                        <mxPoint x="1149.75" y="865" as="targetPoint"/>
                    </mxGeometry>
                </mxCell>
                <mxCell id="83" value="Promise.resolve(importName)" style="html=1;rounded=0;shadow=0;glass=0;sketch=0;strokeColor=#FF0000;fillColor=#FFFFC0;fontColor=#000000;" parent="98" vertex="1">
                    <mxGeometry x="1063.75" y="662" width="168.5" height="24" as="geometry"/>
                </mxCell>
                <mxCell id="84" style="edgeStyle=orthogonalEdgeStyle;rounded=1;orthogonalLoop=1;jettySize=auto;html=1;exitX=0.5;exitY=1;exitDx=0;exitDy=0;endArrow=open;endFill=0;strokeColor=#FF0000;fontColor=#000000;entryX=0.25;entryY=0.5;entryDx=0;entryDy=0;entryPerimeter=0;" parent="98" source="85" target="88" edge="1">
                    <mxGeometry relative="1" as="geometry">
                        <mxPoint x="1149.75" y="865" as="targetPoint"/>
                    </mxGeometry>
                </mxCell>
                <mxCell id="85" value="Promise.reject(importName)" style="html=1;rounded=0;shadow=0;glass=0;sketch=0;strokeColor=#FF0000;fillColor=#FFFFC0;fontColor=#000000;" parent="98" vertex="1">
                    <mxGeometry x="1247.5" y="662" width="168.5" height="24" as="geometry"/>
                </mxCell>
                <mxCell id="86" value="" style="shape=line;html=1;strokeWidth=6;strokeColor=#ff0000;rounded=0;shadow=0;glass=0;sketch=0;fillColor=#FFFFC0;fontColor=#000000;" parent="98" vertex="1">
                    <mxGeometry x="1046" y="416" width="760" height="10" as="geometry"/>
                </mxCell>
                <mxCell id="92" style="edgeStyle=orthogonalEdgeStyle;rounded=1;orthogonalLoop=1;jettySize=auto;html=1;exitX=0.518;exitY=0.69;exitDx=0;exitDy=0;exitPerimeter=0;endArrow=open;endFill=0;strokeColor=#FF0000;fontColor=#000000;" parent="98" source="88" target="90" edge="1">
                    <mxGeometry relative="1" as="geometry"/>
                </mxCell>
                <mxCell id="88" value="" style="shape=line;html=1;strokeWidth=6;strokeColor=#ff0000;rounded=0;shadow=0;glass=0;sketch=0;fillColor=#FFFFC0;fontColor=#000000;" parent="98" vertex="1">
                    <mxGeometry x="1053.75" y="746" width="760" height="10" as="geometry"/>
                </mxCell>
                <mxCell id="90" value="parse checking import names" style="rounded=1;whiteSpace=wrap;html=1;arcSize=40;fontColor=#000000;fillColor=#ffffc0;strokeColor=#ff0000;shadow=0;glass=0;sketch=0;" parent="98" vertex="1">
                    <mxGeometry x="1363.75" y="786" width="168.5" height="30" as="geometry"/>
                </mxCell>
                <mxCell id="91" value="" style="edgeStyle=orthogonalEdgeStyle;html=1;verticalAlign=bottom;endArrow=open;endSize=8;strokeColor=#ff0000;fontColor=#000000;entryX=0.5;entryY=0;entryDx=0;entryDy=0;" parent="98" source="90" target="94" edge="1">
                    <mxGeometry relative="1" as="geometry">
                        <mxPoint x="1418.75" y="886" as="targetPoint"/>
                    </mxGeometry>
                </mxCell>
                <mxCell id="103" style="edgeStyle=orthogonalEdgeStyle;rounded=1;orthogonalLoop=1;jettySize=auto;html=1;exitX=0.5;exitY=1;exitDx=0;exitDy=0;entryX=0.5;entryY=0;entryDx=0;entryDy=0;endArrow=open;endFill=0;strokeColor=#FF0000;" edge="1" parent="98" source="94" target="102">
                    <mxGeometry relative="1" as="geometry"/>
                </mxCell>
                <mxCell id="94" value="exists: string[],&lt;br&gt;notExists: string[]" style="html=1;rounded=0;shadow=0;glass=0;sketch=0;strokeColor=#FF0000;fillColor=#FFFFC0;fontColor=#000000;" parent="98" vertex="1">
                    <mxGeometry x="1393" y="846" width="110.75" height="40" as="geometry"/>
                </mxCell>
                <mxCell id="104" style="edgeStyle=orthogonalEdgeStyle;rounded=1;orthogonalLoop=1;jettySize=auto;html=1;exitX=0.5;exitY=1;exitDx=0;exitDy=0;entryX=0.5;entryY=0;entryDx=0;entryDy=0;endArrow=open;endFill=0;strokeColor=#FF0000;" edge="1" parent="98" source="108" target="95">
                    <mxGeometry relative="1" as="geometry">
                        <mxPoint x="1412.25" y="272" as="sourcePoint"/>
                    </mxGeometry>
                </mxCell>
                <mxCell id="102" value="" style="ellipse;html=1;shape=endState;fillColor=#000000;strokeColor=#ff0000;" vertex="1" parent="98">
                    <mxGeometry x="1433" y="916" width="30" height="30" as="geometry"/>
                </mxCell>
                <mxCell id="105" value="" style="ellipse;html=1;shape=startState;fillColor=#000000;strokeColor=#ff0000;" vertex="1" parent="98">
                    <mxGeometry x="1397.25" y="216" width="30" height="30" as="geometry"/>
                </mxCell>
                <mxCell id="106" value="" style="edgeStyle=orthogonalEdgeStyle;html=1;verticalAlign=bottom;endArrow=open;endSize=8;strokeColor=#ff0000;entryX=0.5;entryY=0;entryDx=0;entryDy=0;" edge="1" source="105" parent="98" target="108">
                    <mxGeometry relative="1" as="geometry">
                        <mxPoint x="1358.75" y="196" as="targetPoint"/>
                    </mxGeometry>
                </mxCell>
                <mxCell id="108" value="source: string,&lt;br&gt;imports: string" style="html=1;rounded=0;shadow=0;glass=0;sketch=0;strokeColor=#FF0000;fillColor=#FFFFC0;fontColor=#000000;" vertex="1" parent="98">
                    <mxGeometry x="1356.88" y="276" width="110.75" height="40" as="geometry"/>
                </mxCell>
                <mxCell id="110" value="" style="endArrow=block;dashed=1;endFill=0;endSize=12;html=1;strokeColor=#FF0000;exitX=1;exitY=0;exitDx=0;exitDy=0;entryX=-0.001;entryY=0.005;entryDx=0;entryDy=0;entryPerimeter=0;" edge="1" parent="98" source="57" target="109">
                    <mxGeometry width="160" relative="1" as="geometry">
                        <mxPoint x="-90" y="680" as="sourcePoint"/>
                        <mxPoint x="450" y="600" as="targetPoint"/>
                    </mxGeometry>
                </mxCell>
                <mxCell id="133" value="" style="endArrow=block;dashed=1;endFill=0;endSize=12;html=1;strokeColor=#FF0000;exitX=1;exitY=0;exitDx=0;exitDy=0;entryX=0;entryY=0.017;entryDx=0;entryDy=0;entryPerimeter=0;" edge="1" source="132" parent="98" target="109">
                    <mxGeometry width="160" relative="1" as="geometry">
                        <mxPoint x="-73" y="1340" as="sourcePoint"/>
                        <mxPoint x="972" y="-31" as="targetPoint"/>
                    </mxGeometry>
                </mxCell>
                <mxCell id="122" value="findAdditionalImportsFrom" parent="0" visible="0"/>
                <mxCell id="144" value="&lt;font color=&quot;#ffffff&quot;&gt;findAdditionalImportsFrom&lt;/font&gt;" style="shape=umlFrame;whiteSpace=wrap;html=1;width=173;height=30;" vertex="1" parent="122">
                    <mxGeometry x="521" y="404" width="387" height="491" as="geometry"/>
                </mxCell>
                <mxCell id="137" value="getImportsFrom(importFile of existsImportFiles)" style="rounded=1;whiteSpace=wrap;html=1;arcSize=40;fontColor=#000000;fillColor=#ffffc0;strokeColor=#ff0000;" vertex="1" parent="122">
                    <mxGeometry x="583" y="707" width="265" height="28" as="geometry"/>
                </mxCell>
                <mxCell id="138" value="" style="edgeStyle=orthogonalEdgeStyle;html=1;verticalAlign=bottom;endArrow=open;endSize=8;strokeColor=#ff0000;" edge="1" source="137" parent="122" target="139">
                    <mxGeometry relative="1" as="geometry">
                        <mxPoint x="835" y="845" as="targetPoint"/>
                    </mxGeometry>
                </mxCell>
                <mxCell id="141" style="edgeStyle=orthogonalEdgeStyle;rounded=1;orthogonalLoop=1;jettySize=auto;html=1;exitX=0.5;exitY=1;exitDx=0;exitDy=0;entryX=0.5;entryY=0;entryDx=0;entryDy=0;endArrow=open;endFill=0;strokeColor=#FF0000;" edge="1" parent="122" source="139" target="140">
                    <mxGeometry relative="1" as="geometry"/>
                </mxCell>
                <mxCell id="139" value="concat all results" style="rounded=1;whiteSpace=wrap;html=1;arcSize=40;fontColor=#000000;fillColor=#ffffc0;strokeColor=#ff0000;" vertex="1" parent="122">
                    <mxGeometry x="662.25" y="760" width="106.5" height="22" as="geometry"/>
                </mxCell>
                <mxCell id="142" value="" style="ellipse;html=1;shape=endState;fillColor=#000000;strokeColor=#ff0000;" vertex="1" parent="122">
                    <mxGeometry x="700.5" y="845" width="30" height="30" as="geometry"/>
                </mxCell>
                <mxCell id="143" style="edgeStyle=orthogonalEdgeStyle;rounded=1;orthogonalLoop=1;jettySize=auto;html=1;exitX=0.5;exitY=1;exitDx=0;exitDy=0;entryX=0.5;entryY=0;entryDx=0;entryDy=0;endArrow=open;endFill=0;strokeColor=#FF0000;" edge="1" parent="122" source="140" target="142">
                    <mxGeometry relative="1" as="geometry"/>
                </mxCell>
                <mxCell id="134" value="path.join(source, fileName of result.exists)" style="rounded=1;whiteSpace=wrap;html=1;arcSize=40;fontColor=#000000;fillColor=#ffffc0;strokeColor=#ff0000;" vertex="1" parent="122">
                    <mxGeometry x="593" y="654" width="244" height="27" as="geometry"/>
                </mxCell>
                <mxCell id="135" value="" style="edgeStyle=orthogonalEdgeStyle;html=1;verticalAlign=bottom;endArrow=open;endSize=8;strokeColor=#ff0000;entryX=0.5;entryY=0;entryDx=0;entryDy=0;" edge="1" source="134" parent="122" target="137">
                    <mxGeometry relative="1" as="geometry">
                        <mxPoint x="711" y="794" as="targetPoint"/>
                    </mxGeometry>
                </mxCell>
                <mxCell id="136" style="edgeStyle=orthogonalEdgeStyle;rounded=1;orthogonalLoop=1;jettySize=auto;html=1;exitX=0.5;exitY=1;exitDx=0;exitDy=0;entryX=0.5;entryY=0;entryDx=0;entryDy=0;endArrow=open;endFill=0;strokeColor=#FF0000;" edge="1" parent="122" source="132" target="134">
                    <mxGeometry relative="1" as="geometry"/>
                </mxCell>
                <mxCell id="123" value="" style="ellipse;html=1;shape=startState;fillColor=#000000;strokeColor=#ff0000;" vertex="1" parent="122">
                    <mxGeometry x="701" y="412" width="30" height="30" as="geometry"/>
                </mxCell>
                <mxCell id="124" value="" style="edgeStyle=orthogonalEdgeStyle;html=1;verticalAlign=bottom;endArrow=open;endSize=8;strokeColor=#ff0000;entryX=0.5;entryY=0;entryDx=0;entryDy=0;" edge="1" source="123" parent="122" target="126">
                    <mxGeometry relative="1" as="geometry">
                        <mxPoint x="716" y="502" as="targetPoint"/>
                    </mxGeometry>
                </mxCell>
                <mxCell id="131" style="edgeStyle=orthogonalEdgeStyle;rounded=1;orthogonalLoop=1;jettySize=auto;html=1;exitX=0.5;exitY=1;exitDx=0;exitDy=0;entryX=0.5;entryY=0;entryDx=0;entryDy=0;endArrow=open;endFill=0;strokeColor=#FF0000;" edge="1" parent="122" source="126" target="127">
                    <mxGeometry relative="1" as="geometry"/>
                </mxCell>
                <mxCell id="126" value="source: string,&lt;br&gt;existsImports: string[]" style="html=1;rounded=0;shadow=0;glass=0;sketch=0;strokeColor=#FF0000;fillColor=#FFFFC0;fontColor=#000000;" vertex="1" parent="122">
                    <mxGeometry x="652.82" y="468" width="126.37" height="40" as="geometry"/>
                </mxCell>
                <mxCell id="127" value="path.join(source, imports of existsImports, importFileName)" style="rounded=1;whiteSpace=wrap;html=1;arcSize=40;fontColor=#000000;fillColor=#ffffc0;strokeColor=#ff0000;" vertex="1" parent="122">
                    <mxGeometry x="540" y="538" width="352" height="34" as="geometry"/>
                </mxCell>
                <mxCell id="128" value="" style="edgeStyle=orthogonalEdgeStyle;html=1;verticalAlign=bottom;endArrow=open;endSize=8;strokeColor=#ff0000;" edge="1" source="127" parent="122" target="132">
                    <mxGeometry relative="1" as="geometry">
                        <mxPoint x="716" y="643" as="targetPoint"/>
                    </mxGeometry>
                </mxCell>
                <mxCell id="132" value="checkImportsInSource(source, filesWhereE&lt;span&gt;xistsImports&lt;/span&gt;)" style="rounded=1;whiteSpace=wrap;html=1;arcSize=40;fontColor=#000000;fillColor=#ffffc0;strokeColor=#ff0000;shadow=0;glass=0;sketch=0;" vertex="1" parent="122">
                    <mxGeometry x="558" y="602" width="314.5" height="26" as="geometry"/>
                </mxCell>
                <mxCell id="140" value="additionalImports: string[]" style="html=1;rounded=0;shadow=0;glass=0;sketch=0;strokeColor=#FF0000;fillColor=#FFFFC0;fontColor=#000000;" vertex="1" parent="122">
                    <mxGeometry x="641.66" y="803" width="147.69" height="23" as="geometry"/>
                </mxCell>
            </root>
        </mxGraphModel>
    </diagram>
</mxfile>
